<svg width="143" height="52" viewBox="0 0 143 52" fill="none" xmlns="http://www.w3.org/2000/svg">
<path d="M72.248 17.32C74.024 17.32 75.576 17.664 76.904 18.352C78.248 19.024 79.28 20 80 21.28C80.736 22.544 81.104 24.024 81.104 25.72C81.104 27.416 80.736 28.888 80 30.136C79.28 31.384 78.248 32.344 76.904 33.016C75.576 33.672 74.024 34 72.248 34H66.8V17.32H72.248ZM72.248 31.768C74.2 31.768 75.696 31.24 76.736 30.184C77.776 29.128 78.296 27.64 78.296 25.72C78.296 23.784 77.776 22.272 76.736 21.184C75.696 20.096 74.2 19.552 72.248 19.552H69.536V31.768H72.248ZM86.5516 22.696C86.9516 22.024 87.4796 21.504 88.1356 21.136C88.8076 20.752 89.5996 20.56 90.5116 20.56V23.392H89.8156C88.7436 23.392 87.9276 23.664 87.3676 24.208C86.8236 24.752 86.5516 25.696 86.5516 27.04V34H83.8156V20.776H86.5516V22.696ZM94.4186 19.024C93.9226 19.024 93.5066 18.856 93.1706 18.52C92.8346 18.184 92.6666 17.768 92.6666 17.272C92.6666 16.776 92.8346 16.36 93.1706 16.024C93.5066 15.688 93.9226 15.52 94.4186 15.52C94.8986 15.52 95.3066 15.688 95.6426 16.024C95.9786 16.36 96.1466 16.776 96.1466 17.272C96.1466 17.768 95.9786 18.184 95.6426 18.52C95.3066 18.856 94.8986 19.024 94.4186 19.024ZM95.7626 20.776V34H93.0266V20.776H95.7626ZM104.467 31.552L108.211 20.776H111.115L106.075 34H102.811L97.7947 20.776H100.723L104.467 31.552ZM125.303 27.064C125.303 27.56 125.271 28.008 125.207 28.408H115.103C115.183 29.464 115.575 30.312 116.279 30.952C116.983 31.592 117.847 31.912 118.871 31.912C120.343 31.912 121.383 31.296 121.991 30.064H124.943C124.543 31.28 123.815 32.28 122.759 33.064C121.719 33.832 120.423 34.216 118.871 34.216C117.607 34.216 116.471 33.936 115.463 33.376C114.471 32.8 113.687 32 113.111 30.976C112.551 29.936 112.271 28.736 112.271 27.376C112.271 26.016 112.543 24.824 113.087 23.8C113.647 22.76 114.423 21.96 115.415 21.4C116.423 20.84 117.575 20.56 118.871 20.56C120.119 20.56 121.231 20.832 122.207 21.376C123.183 21.92 123.943 22.688 124.487 23.68C125.031 24.656 125.303 25.784 125.303 27.064ZM122.447 26.2C122.431 25.192 122.071 24.384 121.367 23.776C120.663 23.168 119.791 22.864 118.751 22.864C117.807 22.864 116.999 23.168 116.327 23.776C115.655 24.368 115.255 25.176 115.127 26.2H122.447ZM135.651 25.672L140.835 34H137.763L133.995 27.952L130.467 34H127.419L132.603 25.672L127.395 17.32H130.467L134.259 23.416L137.811 17.32H140.859L135.651 25.672Z" fill="#407BE8"/>
<mask id="mask0_80002_3979" style="mask-type:luminance" maskUnits="userSpaceOnUse" x="0" y="0" width="53" height="31">
<path d="M0 0H53V30.4573H0V0Z" fill="white"/>
</mask>
<g mask="url(#mask0_80002_3979)">
<path d="M52.9605 21.3566C52.933 25.3833 50.2504 28.7129 46.2401 29.6882C45.8635 29.7786 45.4766 29.8222 44.9968 29.9043L44.9847 26.8009L44.2075 26.8043C38.3004 26.8261 32.3917 26.8512 26.4846 26.878C26.0203 26.8814 25.685 26.7691 25.3548 26.4373C24.2095 25.2878 23.0367 24.1651 21.8536 23.0524C21.6764 22.8865 21.3927 22.7374 21.1571 22.7374C16.9113 22.734 12.6671 22.7558 8.423 22.7726C8.34561 22.7726 8.26823 22.786 8.12722 22.8011L8.15473 30.0317C7.72653 29.973 7.36712 29.9412 7.01631 29.8725C2.88568 29.0564 0.015567 25.504 0.0963912 21.3164C0.177215 17.206 3.1849 13.7691 7.28974 13.0854C7.65947 13.0234 8.17365 13.0251 8.34389 12.7972C8.53477 12.5442 8.37313 12.0599 8.42644 11.6846C8.98877 7.74166 10.9285 4.58467 14.33 2.40124C21.5182 -2.21025 30.7855 0.511069 34.2541 8.18572C34.4501 8.61805 34.6547 9.04703 34.8886 9.54973C35.279 9.20622 35.6229 8.90459 35.9651 8.60129C37.628 7.12669 39.5575 6.75636 41.6348 7.48864C43.726 8.22426 44.9228 9.78433 45.2341 11.9141C45.339 12.6397 45.6176 12.8994 46.3278 13.0754C50.4361 14.0925 52.9863 17.3149 52.9605 21.3566Z" fill="#00AEEF"/>
</g>
<mask id="mask1_80002_3979" style="mask-type:luminance" maskUnits="userSpaceOnUse" x="10" y="35" width="38" height="17">
<path d="M10.9248 35.6051H47.024V52H10.9248V35.6051Z" fill="white"/>
</mask>
<g mask="url(#mask1_80002_3979)">
<path d="M46.9088 35.9285C46.8486 36.1999 46.8056 36.4194 46.7506 36.6356C45.5262 41.5253 44.2898 46.4132 43.0843 51.3063C42.9674 51.7771 42.7679 51.8911 42.2967 51.8927C32.0853 51.9179 21.874 51.9514 11.6626 51.9966L11.0298 51.9983C11.5079 50.0981 11.9636 48.2867 12.4176 46.4752C13.243 43.1775 14.0736 39.8831 14.8818 36.582C14.9799 36.1832 15.1226 36.0324 15.5714 36.0324C25.8206 36.0089 36.0715 35.9754 46.3224 35.9301L46.9088 35.9285Z" fill="#FFD662"/>
</g>
<path d="M42.6313 29.1886C42.6365 30.5789 42.6502 31.8768 42.6313 33.1746C42.6296 33.2839 42.4199 33.4352 42.2754 33.4856C42.1207 33.5411 41.9281 33.5008 41.7528 33.5024C32.4649 33.5361 23.1771 33.5663 13.8875 33.5899C13.2892 33.5916 13.0605 33.7462 12.923 34.3313C12.2903 37.0346 11.5974 39.7245 10.9251 42.4177C10.889 42.564 10.8409 42.7069 10.7136 42.8548C10.7016 42.722 10.6775 42.5892 10.6775 42.4564C10.6535 36.8867 10.6397 31.3169 10.6002 25.7472C10.5967 25.2294 10.7549 25.1067 11.2621 25.1083C14.1953 25.1201 17.1285 25.0882 20.0616 25.0999C20.3367 25.1016 20.672 25.2412 20.8749 25.4261C22.1162 26.5626 23.3163 27.7461 24.5629 28.8775C24.7898 29.0843 25.1663 29.2356 25.4741 29.2356C30.9296 29.2373 36.385 29.2121 41.8404 29.1919L42.6313 29.1886Z" fill="#FFD662"/>
</svg>
